<!--?xml version="1.0" encoding="utf-8"?-->
<!-- Generator: Adobe Illustrator 16.0.0, SVG Export Plug-In . SVG Version: 6.00 Build 0)  -->

<svg version="1.1" id="svg347" inkscape:version="0.92+devel (b071ae7561, 2017-11-25, custom)" sodipodi:docname="arabic-ARLIBERA.svg" xmlns:rdf="http://www.w3.org/1999/02/22-rdf-syntax-ns#" xmlns:svg="http://www.w3.org/2000/svg" xmlns:cc="http://creativecommons.org/ns#" xmlns:dc="http://purl.org/dc/elements/1.1/" xmlns:inkscape="http://www.inkscape.org/namespaces/inkscape" xmlns:sodipodi="http://sodipodi.sourceforge.net/DTD/sodipodi-0.dtd" xmlns="http://www.w3.org/2000/svg" xmlns:xlink="http://www.w3.org/1999/xlink" x="0px" y="0px" width="172.492px" height="595.471px" viewBox="0 0 172.492 595.471" enable-background="new 0 0 172.492 595.471" xml:space="preserve" style="">
<sodipodi:namedview inkscape:snap-page="false" inkscape:current-layer="svg347" inkscape:window-maximized="1" inkscape:window-y="-8" inkscape:window-x="-8" inkscape:window-height="1017" inkscape:pageshadow="2" inkscape:document-rotation="0" inkscape:pageopacity="0" inkscape:window-width="1920" inkscape:cy="92.474611" showgrid="false" guidetolerance="10" inkscape:zoom="4.4065957" inkscape:cx="31.521551" objecttolerance="10" gridtolerance="10" bordercolor="#666666" id="namedview349" borderopacity="1" pagecolor="#ffffff">
	</sodipodi:namedview>
<mask id="g345">
	<path id="path325" fill="#f7ed7c" d="M38.933,552.595c0.293-0.233,0.615-0.352,0.967-0.352c3.047,0.411,7.603,0.615,13.667,0.615
		h5.625c7.207,0,14.385,1.187,21.533,3.56c7.5,2.227,12.655,3.867,15.469,4.922c4.834,2.637,7.339,4.352,7.515,5.143v0.614
		c-0.264,1.084-0.396,1.655-0.396,1.714v0.527c0,0.674,1.349,2.886,4.043,6.636c0.41,0.763,0.615,1.245,0.615,1.45v0.483
		c0,0.176-0.073,0.264-0.22,0.264h-0.265c-5.01-5.566-8.452-8.965-10.327-10.195c-4.746-4.131-8.145-6.504-10.195-7.119
		c-1.143-0.73-3.222-1.347-6.239-1.846c-2.929-0.41-5.713-0.615-8.35-0.615c-8.115,0.088-13.081,0.133-14.897,0.133
		c-4.658,0-7.719-0.454-9.185-1.362C42.785,554.968,39.665,553.445,38.933,552.595L38.933,552.595z M97.423,500.783v2.505
		c0,5.449,0.688,9.712,2.065,12.788c1.085,2.401,2.96,4.98,5.625,7.733c2.345,2.197,4.688,4.41,7.031,6.637
		c5.713,5.448,10.138,10.459,13.271,15.028c2.521,3.662,4.57,8.351,6.152,14.063c0.615,2.227,0.924,3.604,0.924,4.131
		c0,0.293-0.221,0.542-0.66,0.747c-0.352-0.41-1.024-1.494-2.021-3.252c-1.787-3.105-4.644-7.676-8.569-13.711
		c-4.746-6.416-9.111-11.396-13.096-14.941l-9.756-8.524c-3.809-3.574-6.46-6.899-7.954-9.977
		c-1.758-3.632-2.638-7.251-2.638-10.854v-2.373L97.423,500.783L97.423,500.783z" class="TpUODhSd_0" data-darkreader-inline-fill="" style="--darkreader-inline-fill:#6e621f;"></path>
	<path id="path327" fill="#f7ed7c" d="M97.423,475.471v2.55c0,2.139-0.365,4.321-1.098,6.548c-0.88,2.783-2.066,4.542-3.561,5.272
		c3.105,3.252,4.658,7.18,4.658,11.777v1.055H87.8v-4.658c0-2.637-0.352-4.408-1.055-5.316c-0.907-1.144-2.753-2.533-5.537-4.175
		c-2.578-1.522-4.467-2.959-5.669-4.308l0.352-0.482c1.143,0.469,2.872,1.143,5.186,2.021c1.67,0.615,3.399,0.923,5.186,0.923
		c1.025,0,1.537-1.229,1.537-3.69v-7.516H97.423L97.423,475.471z M105.114,485.666c0.382,0,1.193,0.849,2.439,2.544
		c1.245,1.696,1.866,2.792,1.866,3.286c-1.846,1.832-3.809,3.155-5.889,3.97c-1.729-1.956-3.4-3.964-5.01-6.021
		c0.411-0.06,1.494-0.703,3.252-1.935C103.531,486.28,104.646,485.666,105.114,485.666L105.114,485.666z" class="TpUODhSd_1" data-darkreader-inline-fill="" style="--darkreader-inline-fill:#6e621f;"></path>
	<path id="path329" fill="#f7ed7c" d="M105.649,452.136c1.146,0,2.854,0.96,5.131,2.879c2.274,1.919,3.412,3.436,3.412,4.549
		c-0.843,1.378-1.644,2.987-2.397,4.834c0.029,0.176,0.988,1.032,2.879,2.57c1.89,1.538,2.834,2.763,2.834,3.669
		c0,0.764-0.454,2.096-1.362,3.999c-0.967,1.993-1.743,2.988-2.329,2.988c-1.934-1.494-3.413-2.665-4.438-3.516
		c-2.549-2.109-3.823-3.354-3.823-3.735c0.088-0.204,0.646-1.215,1.67-3.032c0.819-1.494,1.229-2.432,1.229-2.813
		c0-0.41-1.104-1.545-3.316-3.405c-2.213-1.86-3.318-3.039-3.318-3.538C103.345,453.953,104.623,452.136,105.649,452.136
		L105.649,452.136z M97.423,450.378v2.549c0,2.14-0.365,4.322-1.098,6.548c-0.88,2.779-2.066,4.535-3.561,5.266
		c3.105,3.244,4.658,7.158,4.658,11.745v1.052H87.8v-4.646c0-2.63-0.352-4.396-1.055-5.304c-0.907-1.139-2.753-2.525-5.537-4.163
		c-2.578-1.52-4.467-2.954-5.669-4.302l0.352-0.483c1.143,0.47,2.872,1.144,5.186,2.021c1.67,0.615,3.399,0.923,5.186,0.923
		c1.025,0,1.537-1.229,1.537-3.691v-7.515H97.423L97.423,450.378z" class="TpUODhSd_2" data-darkreader-inline-fill="" style="--darkreader-inline-fill:#6e621f;"></path>
	<path id="path331" fill="#f7ed7c" d="M41.965,429.987c1.67,0.557,4.702,1.084,9.097,1.582c3.018,0.264,7.559,0.658,13.623,1.187
		c9.815,0.908,18.003,3.369,24.564,7.383c5.449,3.341,8.174,6.637,8.174,9.889v2.943H87.8v-2.943c0-5.479-2.681-9.155-8.042-11.03
		c-3.164-1.113-8.159-1.67-14.985-1.67c-4.219,0-8.994-0.819-14.326-2.461c-4.072-1.23-7.046-2.682-8.921-4.352L41.965,429.987
		L41.965,429.987z M65.563,414.211c0.703,0,2.358,0.235,4.966,0.703c12.744,2.285,21.432,5.493,26.061,9.624
		c1.699,1.522,3.193,4.072,4.481,7.646c0.089,0.235,0.952,3.092,2.593,8.569c0.498,1.729,0.748,2.944,0.748,3.647
		c0,0.819-0.265,1.229-0.791,1.229c-0.47,0-1.172-0.659-2.109-1.978c-1.879-2.791-3.77-5.574-5.67-8.351
		c-2.137-3.104-4.291-5.684-6.459-7.733c-2.637-2.521-5.697-4.526-9.186-6.021c-1.904-0.851-5.478-2.065-10.723-3.647
		c-4.365-1.317-6.548-2.356-6.548-3.119C62.927,414.401,63.806,414.211,65.563,414.211z M37.526,382.79v4.79
		c0,1.172,0.769,3.354,2.307,6.548s2.307,5.771,2.307,7.734c0,1.699-0.382,3.472-1.147,5.316c-0.824,2.051-1.765,3.209-2.825,3.473
		c0.656-2.577,0.984-4.98,0.984-7.207c0-1.729-0.659-3.939-1.978-6.637c-1.318-2.695-1.978-4.789-1.978-6.283
		C35.197,387.597,35.974,385.017,37.526,382.79z M43.854,395.798c4.16,0,12.056,0.57,23.687,1.709
		c3.281,0.264,7.31,0.629,12.085,1.096c3.691,0.438,7.69,1.476,11.997,3.11c3.457,1.313,5.801,2.425,7.031,3.33l-0.044,0.22
		c-6.387-0.644-16.991-1.592-31.816-2.849c-1.201-0.087-4.849-0.964-10.942-2.629c-5.332-1.46-9.243-2.601-11.733-3.417
		L43.854,395.798z M38.933,373.386c0.293-0.234,0.615-0.352,0.967-0.352c3.047,0.41,7.603,0.615,13.667,0.615h5.625
		c7.207,0,14.385,1.187,21.533,3.56c7.5,2.228,12.655,3.867,15.469,4.922c4.834,2.638,7.339,4.351,7.515,5.142v0.615
		c-0.264,1.084-0.396,1.655-0.396,1.715v0.526c0,0.674,1.349,2.886,4.043,6.636c0.41,0.762,0.615,1.245,0.615,1.45v0.483
		c0,0.176-0.073,0.264-0.22,0.264h-0.265c-5.01-5.566-8.452-8.965-10.327-10.195c-4.746-4.131-8.145-6.504-10.195-7.119
		c-1.143-0.731-3.222-1.347-6.239-1.846c-2.929-0.41-5.713-0.615-8.35-0.615c-8.115,0.088-13.081,0.133-14.897,0.133
		c-4.658,0-7.719-0.455-9.185-1.362C42.785,375.759,39.665,374.235,38.933,373.386L38.933,373.386z M97.423,321.574v2.505
		c0,5.449,0.688,9.712,2.065,12.788c1.085,2.401,2.96,4.979,5.625,7.733c2.345,2.197,4.688,4.41,7.031,6.637
		c5.713,5.449,10.138,10.459,13.271,15.029c2.521,3.661,4.57,8.35,6.152,14.063c0.615,2.227,0.924,3.604,0.924,4.131
		c0,0.292-0.221,0.542-0.66,0.747c-0.352-0.411-1.024-1.494-2.021-3.252c-1.787-3.104-4.644-7.677-8.569-13.711
		c-4.746-6.416-9.111-11.396-13.096-14.941l-9.756-8.524c-3.809-3.574-6.46-6.899-7.954-9.977
		c-1.758-3.633-2.638-7.251-2.638-10.854v-2.373L97.423,321.574L97.423,321.574z" class="TpUODhSd_3" data-darkreader-inline-fill="" style="--darkreader-inline-fill:#6e621f;"></path>
	<path id="path333" fill="#f7ed7c" d="M97.423,296.262v2.55c0,2.139-0.365,4.32-1.098,6.547c-0.88,2.783-2.066,4.541-3.561,5.273
		c3.105,3.252,4.658,7.178,4.658,11.777v1.055H87.8v-4.658c0-2.637-0.352-4.408-1.055-5.316c-0.907-1.143-2.753-2.534-5.537-4.176
		c-2.578-1.522-4.467-2.959-5.669-4.307l0.352-0.482c1.143,0.469,2.872,1.143,5.186,2.021c1.67,0.615,3.399,0.923,5.186,0.923
		c1.025,0,1.537-1.229,1.537-3.691v-7.514L97.423,296.262L97.423,296.262z M105.114,306.457c0.382,0,1.193,0.849,2.439,2.544
		c1.245,1.696,1.866,2.791,1.866,3.286c-1.846,1.832-3.809,3.155-5.889,3.97c-1.729-1.957-3.4-3.965-5.01-6.021
		c0.411-0.059,1.494-0.702,3.252-1.934C103.531,307.071,104.646,306.457,105.114,306.457L105.114,306.457z" class="TpUODhSd_4" data-darkreader-inline-fill="" style="--darkreader-inline-fill:#6e621f;"></path>
	<path id="path335" fill="#f7ed7c" d="M105.649,272.927c1.146,0,2.854,0.96,5.131,2.878c2.274,1.92,3.412,3.436,3.412,4.549
		c-0.843,1.377-1.644,2.988-2.397,4.834c0.029,0.176,0.988,1.033,2.879,2.57c1.89,1.539,2.834,2.762,2.834,3.67
		c0,0.762-0.454,2.095-1.362,3.999c-0.967,1.992-1.743,2.988-2.329,2.988c-1.934-1.494-3.413-2.666-4.438-3.516
		c-2.549-2.109-3.823-3.354-3.823-3.735c0.088-0.205,0.646-1.216,1.67-3.032c0.819-1.494,1.229-2.432,1.229-2.813
		c0-0.41-1.104-1.545-3.316-3.405c-2.213-1.86-3.318-3.04-3.318-3.538C103.345,274.743,104.623,272.927,105.649,272.927
		L105.649,272.927z M97.423,271.169v2.549c0,2.139-0.365,4.321-1.098,6.548c-0.88,2.779-2.066,4.534-3.561,5.265
		c3.105,3.243,4.658,7.158,4.658,11.745v1.052H87.8v-4.646c0-2.63-0.352-4.396-1.055-5.303c-0.907-1.139-2.753-2.526-5.537-4.163
		c-2.578-1.521-4.467-2.954-5.669-4.302l0.352-0.483c1.143,0.469,2.872,1.143,5.186,2.021c1.67,0.615,3.399,0.923,5.186,0.923
		c1.025,0,1.537-1.23,1.537-3.691v-7.515H97.423z" class="TpUODhSd_5" data-darkreader-inline-fill="" style="--darkreader-inline-fill:#6e621f;"></path>
	<path id="path337" fill="#f7ed7c" d="M41.965,250.778c1.67,0.557,4.702,1.084,9.097,1.582c3.018,0.264,7.559,0.659,13.623,1.187
		c9.815,0.908,18.003,3.369,24.564,7.383c5.449,3.34,8.174,6.636,8.174,9.888v2.944H87.8v-2.944c0-5.479-2.681-9.155-8.042-11.03
		c-3.164-1.113-8.159-1.67-14.985-1.67c-4.219,0-8.994-0.82-14.326-2.461c-4.072-1.23-7.046-2.681-8.921-4.351L41.965,250.778
		L41.965,250.778z M65.563,235.002c0.703,0,2.358,0.234,4.966,0.703c12.744,2.285,21.432,5.493,26.061,9.624
		c1.699,1.523,3.193,4.072,4.481,7.646c0.089,0.234,0.952,3.091,2.593,8.569c0.498,1.729,0.748,2.944,0.748,3.647
		c0,0.82-0.265,1.23-0.791,1.23c-0.47,0-1.172-0.659-2.109-1.978c-1.879-2.79-3.77-5.574-5.67-8.35
		c-2.137-3.104-4.291-5.684-6.459-7.734c-2.637-2.52-5.697-4.526-9.186-6.021c-1.904-0.85-5.478-2.065-10.723-3.647
		c-4.365-1.318-6.548-2.358-6.548-3.12C62.927,235.192,63.806,235.002,65.563,235.002z M37.526,203.581v4.79
		c0,1.172,0.769,3.354,2.307,6.548s2.307,5.771,2.307,7.734c0,1.699-0.382,3.472-1.147,5.317c-0.824,2.051-1.765,3.208-2.825,3.472
		c0.656-2.578,0.984-4.98,0.984-7.207c0-1.729-0.659-3.94-1.978-6.636c-1.319-2.696-1.978-4.79-1.978-6.284
		C35.197,208.386,35.974,205.808,37.526,203.581z M43.854,216.589c4.16,0,12.056,0.57,23.687,1.709
		c3.281,0.263,7.31,0.628,12.085,1.096c3.691,0.438,7.69,1.475,11.997,3.11c3.457,1.314,5.801,2.425,7.031,3.33l-0.044,0.219
		c-6.387-0.643-16.991-1.592-31.816-2.848c-1.201-0.088-4.849-0.964-10.942-2.629c-5.332-1.461-9.243-2.6-11.733-3.417
		L43.854,216.589z M38.933,194.177c0.293-0.234,0.615-0.352,0.967-0.352c3.047,0.41,7.603,0.615,13.667,0.615h5.625
		c7.207,0,14.385,1.187,21.533,3.56c7.5,2.227,12.655,3.867,15.469,4.922c4.834,2.637,7.339,4.351,7.515,5.142v0.615
		c-0.264,1.084-0.396,1.655-0.396,1.714v0.527c0,0.674,1.349,2.886,4.043,6.636c0.41,0.762,0.615,1.245,0.615,1.45v0.483
		c0,0.176-0.073,0.264-0.22,0.264h-0.265c-5.01-5.566-8.452-8.965-10.327-10.195c-4.746-4.131-8.145-6.504-10.195-7.119
		c-1.143-0.732-3.222-1.348-6.239-1.846c-2.929-0.41-5.713-0.615-8.35-0.615c-8.115,0.088-13.081,0.132-14.897,0.132
		c-4.658,0-7.719-0.454-9.185-1.362C42.785,196.55,39.665,195.026,38.933,194.177z M97.423,142.365v2.505
		c0,5.449,0.688,9.712,2.065,12.788c1.085,2.402,2.96,4.98,5.625,7.734c2.345,2.197,4.688,4.409,7.031,6.636
		c5.713,5.449,10.138,10.459,13.271,15.029c2.521,3.662,4.57,8.35,6.152,14.063c0.615,2.227,0.924,3.604,0.924,4.131
		c0,0.293-0.221,0.542-0.66,0.747c-0.352-0.41-1.024-1.494-2.021-3.252c-1.787-3.105-4.644-7.676-8.569-13.711
		c-4.746-6.416-9.111-11.396-13.096-14.941l-9.756-8.525c-3.809-3.574-6.46-6.899-7.954-9.976
		c-1.758-3.633-2.638-7.251-2.638-10.854v-2.373L97.423,142.365L97.423,142.365z" class="TpUODhSd_6" data-darkreader-inline-fill="" style="--darkreader-inline-fill:#6e621f;"></path>
	<path id="path339" fill="#f7ed7c" d="M97.423,117.053v2.549c0,2.139-0.365,4.321-1.098,6.548c-0.88,2.783-2.066,4.541-3.561,5.273
		c3.105,3.252,4.658,7.178,4.658,11.777v1.055H87.8v-4.658c0-2.637-0.352-4.409-1.055-5.317c-0.907-1.144-2.753-2.534-5.537-4.175
		c-2.578-1.523-4.467-2.959-5.669-4.307l0.352-0.483c1.143,0.469,2.872,1.143,5.186,2.021c1.67,0.615,3.399,0.923,5.186,0.923
		c1.025,0,1.537-1.23,1.537-3.691v-7.515H97.423z M105.114,127.248c0.382,0,1.193,0.848,2.439,2.544
		c1.245,1.696,1.866,2.791,1.866,3.286c-1.846,1.832-3.809,3.155-5.889,3.97c-1.729-1.957-3.4-3.964-5.01-6.021
		c0.411-0.059,1.494-0.703,3.252-1.934C103.531,127.862,104.646,127.248,105.114,127.248z" class="TpUODhSd_7" data-darkreader-inline-fill="" style="--darkreader-inline-fill:#6e621f;"></path>
	<path id="path341" fill="#f7ed7c" d="M105.649,93.718c1.146,0,2.854,0.96,5.131,2.878c2.274,1.92,3.412,3.436,3.412,4.549
		c-0.843,1.377-1.644,2.988-2.397,4.834c0.029,0.176,0.988,1.033,2.879,2.57c1.89,1.539,2.834,2.762,2.834,3.67
		c0,0.762-0.454,2.095-1.362,3.999c-0.967,1.992-1.743,2.988-2.329,2.988c-1.934-1.494-3.413-2.666-4.438-3.516
		c-2.549-2.109-3.823-3.354-3.823-3.735c0.088-0.205,0.646-1.216,1.67-3.032c0.819-1.494,1.229-2.432,1.229-2.813
		c0-0.41-1.104-1.545-3.316-3.405c-2.213-1.86-3.318-3.04-3.318-3.538C103.345,95.534,104.623,93.718,105.649,93.718z M97.423,91.96
		v2.549c0,2.139-0.365,4.321-1.098,6.548c-0.88,2.779-2.066,4.534-3.561,5.265c3.105,3.243,4.658,7.158,4.658,11.745v1.052H87.8
		v-4.646c0-2.63-0.352-4.396-1.055-5.303c-0.907-1.139-2.753-2.526-5.537-4.163c-2.578-1.521-4.467-2.954-5.669-4.302l0.352-0.483
		c1.143,0.469,2.872,1.143,5.186,2.021c1.67,0.615,3.399,0.923,5.186,0.923c1.025,0,1.537-1.23,1.537-3.691V91.96H97.423z" class="TpUODhSd_8" data-darkreader-inline-fill="" style="--darkreader-inline-fill:#6e621f;"></path>
	<path id="path343" fill="#f7ed7c" d="M41.965,71.569c1.67,0.557,4.702,1.084,9.097,1.582c3.018,0.264,7.559,0.659,13.623,1.187
		c9.815,0.908,18.003,3.369,24.564,7.383c5.449,3.34,8.174,6.636,8.174,9.888v2.944H87.8v-2.944c0-5.479-2.681-9.155-8.042-11.03
		c-3.164-1.113-8.159-1.67-14.985-1.67c-4.219,0-8.994-0.82-14.326-2.461c-4.072-1.23-7.046-2.681-8.921-4.351L41.965,71.569
		L41.965,71.569z M65.563,55.793c0.703,0,2.358,0.234,4.966,0.703c12.744,2.285,21.432,5.493,26.061,9.624
		c1.699,1.523,3.193,4.072,4.481,7.646c0.089,0.234,0.952,3.091,2.593,8.569c0.498,1.729,0.748,2.944,0.748,3.647
		c0,0.82-0.265,1.23-0.791,1.23c-0.47,0-1.172-0.659-2.109-1.978c-1.879-2.791-3.77-5.574-5.67-8.35
		c-2.137-3.105-4.291-5.684-6.459-7.734c-2.637-2.52-5.697-4.526-9.186-6.021c-1.904-0.85-5.478-2.065-10.723-3.647
		c-4.365-1.318-6.548-2.358-6.548-3.12C62.927,55.983,63.806,55.793,65.563,55.793L65.563,55.793z M37.526,24.372v4.79
		c0,1.172,0.769,3.354,2.307,6.548s2.307,5.771,2.307,7.734c0,1.699-0.382,3.472-1.147,5.317c-0.824,2.051-1.765,3.208-2.825,3.472
		c0.656-2.578,0.984-4.98,0.984-7.207c0-1.729-0.659-3.94-1.978-6.636c-1.319-2.696-1.978-4.79-1.978-6.284
		C35.197,29.177,35.974,26.599,37.526,24.372z M43.854,37.38c4.16,0,12.056,0.57,23.687,1.709c3.281,0.263,7.31,0.628,12.085,1.096
		c3.691,0.438,7.69,1.475,11.997,3.11c3.457,1.314,5.801,2.425,7.031,3.33l-0.044,0.219c-6.387-0.643-16.991-1.592-31.816-2.848
		c-1.201-0.088-4.849-0.964-10.942-2.629c-5.332-1.461-9.243-2.6-11.733-3.417L43.854,37.38z" class="TpUODhSd_9" data-darkreader-inline-fill="" style="--darkreader-inline-fill:#6e621f;"></path>
</mask>
<path id="path1162" mask="url(#g345)" onload="setTimeout(()=>this.style.strokeDashoffset = &quot;0&quot;, 200)" sodipodi:nodetypes="cscscssssssccscssssccccsssssscssscccsscsccccccccccsssccccccccccccsscsccscsccccccsccccsscsssssccccsccccccccsscccscccccscccscccccscssccsscccscccccccccccccccccsccccccccccccccccccccccccccccc" inkscape:connector-curvature="0" fill="none" stroke="#f7ed7c" stroke-width="10.1827" stroke-linejoin="round" d="
	M36.99,22.013c0.536,2.359-0.908,3.857-0.454,7.035s2.27,8.624,2.27,8.624s0.908,4.992,0.908,7.035s-1.545,7.527-1.545,7.527
	s-3.447,2.004-4.128-1.173c-0.681-3.177-1.589-7.715-1.362-8.85s0-2.27,4.085-3.177c4.084-0.908,9.077-1.361,11.8-0.908
	c2.723,0.454,6.808,1.815,12.935,2.497c6.127,0.681,7.716-0.454,17.701,1.361c9.986,1.815,19.455,4.643,19.455,4.643
	s4.373-1.012,2.104,1.938c-2.269,2.95-24.054,3.858-28.139,4.766c-4.085,0.908-13.162,2.723-13.162,2.723s5.673,0.681,9.985,1.362
	s9.531,2.496,13.616,4.766c4.085,2.269,7.942,2.042,10.894,6.808c2.949,4.766,3.857,7.489,5.673,10.893
	c1.815,3.404,4.766,9.758,4.766,9.758L84.646,74.434l-30.409-4.312l-12.711,1.975c0,0,11.123,3.471,13.846,3.698
	s13.389,0.454,18.155,1.588c4.765,1.135,9.304,2.27,10.893,3.177s7.489,4.539,7.489,6.354s1.361,10.439,0.681,13.389
	s-5.22,4.993-6.127,4.766c-0.908-0.227-10.922-4.365-10.922-4.365s12.738,5.5,13.646,7.315c0.907,1.815,4.084,8.396,4.084,10.893
	c0,2.497-3.631,8.396-4.312,9.531s-10.666-1.135-10.666-1.135l-2.752,2.489c0,0,5.249-0.446,7.064,0.007s4.993,1.588,6.126,3.404
	c1.135,1.815,2.951,5.673,3.404,8.169c0.454,2.497,0.908,9.531,2.496,12.254c1.589,2.723,8.624,15.162,9.531,16.07
	c0.908,0.908,8.396,6.624,9.078,7.758c0.68,1.135,10.211,12.481,10.893,14.07c0.681,1.588,4.992,6.808,5.219,8.85
	c0.228,2.042-2.042,9.531-2.042,9.531l13.162-6.808l-30.862-53.783l-5.674-17.928l8.396-19.063l-6.127-15.204l3.631-7.035
	c0,0,14.297,3.858,21.785,22.013c7.489,18.154,17.247,29.274,18.382,59.91c1.135,30.636,3.403,41.755-1.135,47.656
	c-4.538,5.9-26.778,7.942-29.048,5.9c-2.269-2.042-19.742-30.863-19.742-30.863L51.06,181.772l-18.382,4.539l10.439,9.531
	l31.317,2.95c0,0,14.296,3.177,15.658,3.858c1.361,0.681,8.851,5.446,10.212,6.808c1.361,1.361,9.984,9.985,9.984,9.985
	l-15.885,0.454l-56.878-16.316c0,0-2.125,4.97-1.444,6.332c0.681,1.362,3.631,11.574,3.631,12.935c0,1.362,1.545,5.022,0,6.808
	c-1.545,1.786-1.362,3.858-2.497,4.084c-1.135,0.227-6.808-3.631-6.808-5.673c0-2.042,0.908-7.489,2.95-8.851
	c2.042-1.361,16.339-2.042,16.339-2.042s15.432,3.404,17.02,3.631c1.588,0.227,11.8,1.135,15.205,1.362
	c3.404,0.227,12.584,3.249,16.731,3.667s13.904,6.729,13.904,6.729l-27.004-1.319l-19.063,1.362l-5.673,1.588l6.581,2.496
	l17.02,4.766c0,0,5.446,3.858,7.489,6.127c2.043,2.269,4.539,4.993,6.127,8.396c1.589,3.404,4.313,7.716,4.992,9.304
	c0.682,1.588,1.816,3.404,1.816,3.404l-10.213-8.85c0,0-16.565-11.347-23.374-13.162s-23.828-3.404-26.551-3.404
	s-12.706,5.128-7.942,6.581c4.763,1.454,15.658,5.673,18.381,5.9s14.07,1.588,18.608,2.27c4.539,0.681,11.347,2.269,13.389,4.084
	c2.043,1.815,3.857,4.312,4.312,6.127s0.681,4.992,0.681,6.581c0,1.588-1.814,6.808-1.814,6.808l-3.404,2.724l-11.024-4.916
	l-3.954-2.12c0,0,13.616,7.943,14.524,8.624c0.907,0.681,4.538,2.269,4.992,3.858c0.454,1.588,2.042,5.219,2.042,5.219l-0.453,5.447
	l-0.908,4.765c0,0,0.682,2.724-0.907,3.178s-8.17-0.227-8.17-0.227l-7.166-3.65l14.655,10.686c0,0,0.907,4.766,1.588,8.85
	c0.682,4.085,3.404,12.481,4.085,13.389c0.681,0.908,16.112,15.886,16.112,15.886l12.481,15.658l7.019,16.215
	c0,0,4.781,30.987,8.412,11.925c3.632-19.063-13.389-67.853-18.607-71.029c-5.22-3.178-18.382-14.297-18.382-14.297
	s9.985-19.29,9.758-20.197c-0.227-0.908-7.034-15.885-7.034-15.885l12.707-6.127c0,0,19.971,37.444,21.559,45.159
	c1.59,7.717,12.482,90.32,12.255,92.589c-0.227,2.27-34.267-7.034-34.267-7.034l-12.936-25.871c0,0-58.775-14.297-59.91-14.297
	c-1.135,0-11.347,8.624-11.347,8.624l14.253,9.191c0,0,23.872-0.795,25.914-0.341c2.042,0.453,14.978,4.538,14.978,4.538
	s7.262,2.95,8.85,4.312c1.589,1.361,9.19,8.102,9.321,10.299s3.16,9.218,3.16,9.218s-18.835-9.985-20.878-10.894
	c-2.042-0.907-31.543-7.262-38.125-8.169s-13.988-4.13-13.988-4.13l-2.125,3.449c0,0,3.177,7.942,3.631,9.758
	c0.454,1.815,0.454,8.396,0.454,9.305c0,0.907-2.042,10.893-2.042,10.893s-11.574-17.474-11.12-18.608
	c0.454-1.135,24.055-0.454,24.055-0.454s27.005,4.085,27.913,4.085s20.362,3.826,20.362,3.826l10.273,6.612l-52.194-0.681
	l6.581,3.858c0,0,17.928,5.219,19.29,5.673c1.361,0.454,10.666,6.809,10.666,6.809l7.943,11.573l3.857,8.623l-8.851-5.446
	L65.13,423.002l-27.686-1.361v8.396l15.658,4.766l23.147,2.496l12.48,5.446l4.086,6.809c0.428,4.896-0.355,9.551-2.951,13.843
	c0,0-7.942-0.454-9.077-1.135s-4.897-3.622-4.897-3.622l16.47,10.884c0.586,3.074,0.848,6.31,0.228,9.985l-2.269,8.396l-5.447,0.453
	l-8.981-4.625l15.79,10.753l1.361,11.347c-0.903,4.614,2.721,9.229,5.219,13.843l15.432,15.885c0,0,14.297,15.432,14.523,16.793
	l3.615,12.063l-8.381,2.915l-87.822-25.189l3.305,10.453l11.9,2.709l31.543,3.177l16.793,8.17l10.893,7.489l23.375-4.085
	c0,0,6.807-11.801,6.58-13.843c-0.227-2.043-16.339-32.905-17.02-34.04c-0.682-1.135-2.27-54.918-2.27-54.918l-6.809-14.978
	l-8.271-0.141l5.774,15.799l2.043,6.809l-10.439,17.474l1.135,6.581" class="TpUODhSd_10" data-darkreader-inline-fill="" data-darkreader-inline-stroke="" style="--darkreader-inline-fill:none; --darkreader-inline-stroke:#e8e6e3;"></path>
<style data-made-with="vivus-instant">.TpUODhSd_0{stroke-dasharray:323 325;stroke-dashoffset:324;animation:TpUODhSd_draw 11000ms ease 0ms forwards;}.TpUODhSd_1{stroke-dasharray:127 129;stroke-dashoffset:128;animation:TpUODhSd_draw 11000ms ease 0ms forwards;}.TpUODhSd_2{stroke-dasharray:165 167;stroke-dashoffset:166;animation:TpUODhSd_draw 11000ms ease 0ms forwards;}.TpUODhSd_3{stroke-dasharray:739 741;stroke-dashoffset:740;animation:TpUODhSd_draw 11000ms ease 0ms forwards;}.TpUODhSd_4{stroke-dasharray:127 129;stroke-dashoffset:128;animation:TpUODhSd_draw 11000ms ease 0ms forwards;}.TpUODhSd_5{stroke-dasharray:165 167;stroke-dashoffset:166;animation:TpUODhSd_draw 11000ms ease 0ms forwards;}.TpUODhSd_6{stroke-dasharray:739 741;stroke-dashoffset:740;animation:TpUODhSd_draw 11000ms ease 0ms forwards;}.TpUODhSd_7{stroke-dasharray:127 129;stroke-dashoffset:128;animation:TpUODhSd_draw 11000ms ease 0ms forwards;}.TpUODhSd_8{stroke-dasharray:165 167;stroke-dashoffset:166;animation:TpUODhSd_draw 11000ms ease 0ms forwards;}.TpUODhSd_9{stroke-dasharray:417 419;stroke-dashoffset:418;animation:TpUODhSd_draw 11000ms ease 0ms forwards;}.TpUODhSd_10{stroke-dasharray:3312 3314;stroke-dashoffset:3313;animation:TpUODhSd_draw 11000ms ease 0ms forwards;}@keyframes TpUODhSd_draw{100%{stroke-dashoffset:0;}}@keyframes TpUODhSd_fade{0%{stroke-opacity:1;}97.36842105263158%{stroke-opacity:1;}100%{stroke-opacity:0;}}</style><style class="darkreader darkreader--sync" media="screen"></style></svg>
