<?xml version="1.0" encoding="utf-8"?>
<!-- Generator: Adobe Illustrator 16.0.0, SVG Export Plug-In . SVG Version: 6.00 Build 0)  -->
<!DOCTYPE svg PUBLIC "-//W3C//DTD SVG 1.1//EN" "http://www.w3.org/Graphics/SVG/1.1/DTD/svg11.dtd">
<svg version="1.1"
	 id="svg347" inkscape:version="0.92+devel (b071ae7561, 2017-11-25, custom)" sodipodi:docname="arabic-ARLIBERA.svg" xmlns:rdf="http://www.w3.org/1999/02/22-rdf-syntax-ns#" xmlns:svg="http://www.w3.org/2000/svg" xmlns:cc="http://creativecommons.org/ns#" xmlns:dc="http://purl.org/dc/elements/1.1/" xmlns:inkscape="http://www.inkscape.org/namespaces/inkscape" xmlns:sodipodi="http://sodipodi.sourceforge.net/DTD/sodipodi-0.dtd"
	 xmlns="http://www.w3.org/2000/svg" xmlns:xlink="http://www.w3.org/1999/xlink" x="0px" y="0px" width="172.492px"
	 height="595.471px" viewBox="0 0 172.492 595.471" enable-background="new 0 0 172.492 595.471" xml:space="preserve">
<sodipodi:namedview  inkscape:snap-page="false" inkscape:current-layer="svg347" inkscape:window-maximized="1" inkscape:window-y="-8" inkscape:window-x="-8" inkscape:window-height="1017" inkscape:pageshadow="2" inkscape:document-rotation="0" inkscape:pageopacity="0" inkscape:window-width="1920" inkscape:cy="92.474611" showgrid="false" guidetolerance="10" inkscape:zoom="4.4065957" inkscape:cx="31.521551" objecttolerance="10" gridtolerance="10" bordercolor="#666666" id="namedview349" borderopacity="1" pagecolor="#ffffff">
	</sodipodi:namedview>
<g id="g345">
	<path id="path325" fill="#D5C56A" d="M38.933,552.595c0.293-0.232,0.615-0.352,0.967-0.352c3.047,0.411,7.603,0.615,13.667,0.615
		h5.625c7.207,0,14.385,1.187,21.533,3.56c7.5,2.227,12.655,3.867,15.468,4.922c4.834,2.637,7.34,4.353,7.516,5.144v0.613
		c-0.264,1.084-0.396,1.655-0.396,1.714v0.527c0,0.674,1.35,2.886,4.043,6.636c0.41,0.764,0.615,1.245,0.615,1.45v0.483
		c0,0.176-0.072,0.264-0.22,0.264h-0.265c-5.01-5.566-8.452-8.965-10.327-10.195c-4.746-4.131-8.146-6.504-10.195-7.119
		c-1.143-0.729-3.222-1.347-6.239-1.846c-2.929-0.41-5.713-0.615-8.35-0.615c-8.115,0.088-13.081,0.134-14.897,0.134
		c-4.658,0-7.719-0.454-9.185-1.362C42.785,554.968,39.665,553.445,38.933,552.595L38.933,552.595z M97.423,500.783v2.505
		c0,5.449,0.688,9.712,2.065,12.788c1.085,2.4,2.96,4.979,5.625,7.732c2.345,2.197,4.688,4.41,7.031,6.638
		c5.713,5.447,10.138,10.459,13.271,15.027c2.521,3.662,4.569,8.352,6.151,14.063c0.615,2.227,0.925,3.604,0.925,4.131
		c0,0.293-0.222,0.542-0.66,0.747c-0.353-0.41-1.024-1.494-2.021-3.252c-1.787-3.105-4.645-7.676-8.569-13.711
		c-4.746-6.416-9.111-11.396-13.097-14.941l-9.756-8.523c-3.809-3.574-6.459-6.899-7.953-9.978
		c-1.759-3.632-2.639-7.251-2.639-10.854v-2.373H97.423L97.423,500.783z"/>
	<path id="path327" fill="#D5C56A" d="M97.423,475.471v2.55c0,2.14-0.364,4.321-1.098,6.549c-0.88,2.782-2.066,4.542-3.562,5.271
		c3.105,3.252,4.658,7.18,4.658,11.777v1.055H87.8v-4.658c0-2.637-0.352-4.407-1.055-5.315c-0.907-1.145-2.753-2.533-5.537-4.175
		c-2.578-1.522-4.467-2.959-5.669-4.309l0.352-0.481c1.143,0.469,2.872,1.143,5.186,2.021c1.67,0.615,3.399,0.923,5.186,0.923
		c1.025,0,1.537-1.229,1.537-3.689v-7.517L97.423,475.471L97.423,475.471z M105.113,485.666c0.383,0,1.193,0.849,2.439,2.544
		c1.245,1.696,1.866,2.792,1.866,3.286c-1.846,1.832-3.81,3.155-5.89,3.97c-1.729-1.956-3.399-3.964-5.01-6.021
		c0.412-0.061,1.494-0.703,3.252-1.936C103.531,486.28,104.646,485.666,105.113,485.666L105.113,485.666z"/>
	<path id="path329" fill="#D5C56A" d="M105.648,452.136c1.146,0,2.854,0.96,5.131,2.879c2.275,1.919,3.412,3.437,3.412,4.55
		c-0.842,1.378-1.644,2.986-2.396,4.834c0.029,0.176,0.988,1.031,2.879,2.569s2.834,2.764,2.834,3.669
		c0,0.765-0.453,2.097-1.361,3.999c-0.967,1.993-1.744,2.988-2.33,2.988c-1.934-1.494-3.412-2.665-4.438-3.516
		c-2.549-2.109-3.822-3.354-3.822-3.735c0.088-0.204,0.646-1.215,1.67-3.032c0.818-1.494,1.229-2.432,1.229-2.813
		c0-0.41-1.104-1.545-3.316-3.405s-3.318-3.039-3.318-3.538C103.346,453.953,104.623,452.136,105.648,452.136L105.648,452.136z
		 M97.423,450.378v2.549c0,2.141-0.364,4.322-1.098,6.548c-0.88,2.779-2.066,4.535-3.562,5.267
		c3.105,3.244,4.658,7.158,4.658,11.745v1.052H87.8v-4.646c0-2.63-0.352-4.396-1.055-5.304c-0.907-1.139-2.753-2.524-5.537-4.163
		c-2.578-1.52-4.467-2.954-5.669-4.302l0.352-0.483c1.143,0.471,2.872,1.145,5.186,2.021c1.67,0.615,3.399,0.923,5.186,0.923
		c1.025,0,1.537-1.229,1.537-3.691v-7.515H97.423L97.423,450.378z"/>
	<path id="path331" fill="#D5C56A" d="M41.965,429.987c1.67,0.557,4.702,1.084,9.097,1.582c3.018,0.264,7.559,0.657,13.623,1.187
		c9.815,0.908,18.003,3.369,24.564,7.383c5.448,3.342,8.174,6.638,8.174,9.89v2.942H87.8v-2.942c0-5.479-2.681-9.155-8.042-11.03
		c-3.164-1.113-8.159-1.67-14.985-1.67c-4.219,0-8.994-0.819-14.326-2.461c-4.072-1.23-7.046-2.683-8.921-4.353L41.965,429.987
		L41.965,429.987z M65.563,414.211c0.703,0,2.358,0.235,4.966,0.703c12.744,2.285,21.432,5.493,26.061,9.624
		c1.699,1.521,3.193,4.072,4.48,7.646c0.09,0.235,0.953,3.093,2.594,8.569c0.498,1.729,0.748,2.944,0.748,3.647
		c0,0.818-0.266,1.229-0.791,1.229c-0.471,0-1.172-0.659-2.109-1.978c-1.879-2.791-3.77-5.574-5.67-8.352
		c-2.137-3.104-4.291-5.684-6.459-7.732c-2.637-2.521-5.697-4.526-9.186-6.021c-1.904-0.852-5.478-2.064-10.723-3.646
		c-4.365-1.317-6.548-2.356-6.548-3.119C62.927,414.401,63.806,414.211,65.563,414.211z M37.526,382.79v4.79
		c0,1.172,0.769,3.354,2.307,6.548c1.538,3.194,2.307,5.771,2.307,7.734c0,1.699-0.382,3.472-1.147,5.316
		c-0.824,2.051-1.765,3.209-2.825,3.473c0.656-2.577,0.984-4.98,0.984-7.207c0-1.729-0.659-3.939-1.978-6.637
		c-1.318-2.695-1.978-4.789-1.978-6.283C35.197,387.597,35.974,385.017,37.526,382.79z M43.854,395.798
		c4.16,0,12.056,0.57,23.687,1.709c3.281,0.264,7.31,0.629,12.085,1.096c3.691,0.438,7.69,1.477,11.997,3.11
		c3.457,1.313,5.801,2.425,7.031,3.33l-0.045,0.22c-6.387-0.644-16.99-1.592-31.815-2.849c-1.201-0.087-4.849-0.964-10.942-2.629
		c-5.332-1.46-9.243-2.601-11.733-3.417L43.854,395.798z M38.933,373.386c0.293-0.234,0.615-0.352,0.967-0.352
		c3.047,0.41,7.603,0.615,13.667,0.615h5.625c7.207,0,14.385,1.187,21.533,3.56c7.5,2.228,12.655,3.867,15.468,4.922
		c4.834,2.638,7.34,4.351,7.516,5.142v0.615c-0.264,1.084-0.396,1.655-0.396,1.715v0.526c0,0.674,1.35,2.886,4.043,6.636
		c0.41,0.762,0.615,1.245,0.615,1.45v0.483c0,0.176-0.072,0.264-0.22,0.264h-0.265c-5.01-5.566-8.452-8.965-10.327-10.195
		c-4.746-4.131-8.146-6.504-10.195-7.119c-1.143-0.73-3.222-1.347-6.239-1.846c-2.929-0.41-5.713-0.615-8.35-0.615
		c-8.115,0.088-13.081,0.133-14.897,0.133c-4.658,0-7.719-0.454-9.185-1.361C42.785,375.759,39.665,374.235,38.933,373.386
		L38.933,373.386z M97.423,321.574v2.505c0,5.449,0.688,9.712,2.065,12.788c1.085,2.401,2.96,4.979,5.625,7.733
		c2.345,2.196,4.688,4.409,7.031,6.637c5.713,5.449,10.138,10.459,13.271,15.029c2.521,3.66,4.569,8.35,6.151,14.063
		c0.615,2.227,0.925,3.604,0.925,4.131c0,0.292-0.222,0.542-0.66,0.747c-0.353-0.411-1.024-1.494-2.021-3.252
		c-1.787-3.104-4.645-7.677-8.569-13.711c-4.746-6.416-9.111-11.396-13.097-14.941l-9.756-8.524
		c-3.809-3.573-6.459-6.898-7.953-9.977c-1.759-3.633-2.639-7.251-2.639-10.854v-2.373L97.423,321.574L97.423,321.574z"/>
	<path id="path333" fill="#D5C56A" d="M97.423,296.262v2.55c0,2.14-0.364,4.32-1.098,6.547c-0.88,2.783-2.066,4.541-3.562,5.273
		c3.105,3.252,4.658,7.178,4.658,11.777v1.055H87.8v-4.658c0-2.637-0.352-4.408-1.055-5.315c-0.907-1.144-2.753-2.534-5.537-4.177
		c-2.578-1.521-4.467-2.959-5.669-4.307l0.352-0.482c1.143,0.47,2.872,1.144,5.186,2.021c1.67,0.615,3.399,0.923,5.186,0.923
		c1.025,0,1.537-1.229,1.537-3.69v-7.514L97.423,296.262L97.423,296.262z M105.113,306.457c0.383,0,1.193,0.849,2.439,2.544
		c1.245,1.696,1.866,2.791,1.866,3.286c-1.846,1.832-3.81,3.155-5.89,3.97c-1.729-1.957-3.399-3.965-5.01-6.021
		c0.412-0.059,1.494-0.701,3.252-1.934C103.531,307.071,104.646,306.457,105.113,306.457L105.113,306.457z"/>
	<path id="path335" fill="#D5C56A" d="M105.648,272.927c1.146,0,2.854,0.96,5.131,2.878c2.275,1.92,3.412,3.436,3.412,4.549
		c-0.842,1.377-1.644,2.988-2.396,4.834c0.029,0.176,0.988,1.033,2.879,2.57c1.891,1.539,2.834,2.762,2.834,3.67
		c0,0.762-0.453,2.095-1.361,3.999c-0.967,1.992-1.744,2.988-2.33,2.988c-1.934-1.494-3.412-2.666-4.438-3.516
		c-2.549-2.109-3.822-3.354-3.822-3.735c0.088-0.205,0.646-1.216,1.67-3.032c0.818-1.494,0.02-2.099,0.02-2.479
		c0-0.41,0.105-1.878-2.107-3.738s-3.318-3.04-3.318-3.538C103.346,274.743,104.623,272.927,105.648,272.927L105.648,272.927z
		 M97.423,271.169v2.549c0,2.139-0.364,4.321-1.098,6.548c-0.88,2.779-2.066,4.534-3.562,5.265
		c3.105,3.243,4.658,7.158,4.658,11.745v1.052H87.8v-4.646c0-2.63-0.352-4.396-1.055-5.303c-0.907-1.139-2.753-2.526-5.537-4.163
		c-2.578-1.521-4.467-2.954-5.669-4.302l0.352-0.483c1.143,0.469,2.872,1.143,5.186,2.021c1.67,0.615,3.399,0.923,5.186,0.923
		c1.025,0,1.537-1.23,1.537-3.691v-7.515H97.423z"/>
	<path id="path337" fill="#D5C56A" d="M41.965,250.778c1.67,0.557,4.702,1.084,9.097,1.582c3.018,0.264,7.559,0.659,13.623,1.187
		c9.815,0.908,18.003,3.369,24.564,7.383c5.448,3.34,8.174,6.636,8.174,9.888v2.944H87.8v-2.944c0-5.479-2.681-9.155-8.042-11.03
		c-3.164-1.113-8.159-1.67-14.985-1.67c-4.219,0-8.994-0.82-14.326-2.461c-4.072-1.23-7.046-2.681-8.921-4.351L41.965,250.778
		L41.965,250.778z M65.563,235.002c0.703,0,2.358,0.234,4.966,0.703c12.744,2.285,21.432,5.493,26.061,9.624
		c1.699,1.523,3.193,4.072,4.48,7.646c0.09,0.234,0.953,3.091,2.594,8.569c0.498,1.729,0.748,2.944,0.748,3.647
		c0,0.82-0.266,1.23-0.791,1.23c-0.471,0-1.172-0.659-2.109-1.978c-1.879-2.79-3.77-5.574-5.67-8.35
		c-2.137-3.104-4.291-5.684-6.459-7.734c-2.637-2.52-5.697-4.526-9.186-6.021c-1.904-0.85-5.478-2.065-10.723-3.647
		c-4.365-1.318-6.548-2.358-6.548-3.12C62.927,235.192,63.806,235.002,65.563,235.002z M37.526,203.581v4.79
		c0,1.172,0.769,3.354,2.307,6.548s2.307,5.771,2.307,7.734c0,1.699-0.382,3.472-1.147,5.317c-0.824,2.051-1.765,3.208-2.825,3.472
		c0.656-2.578,0.984-4.98,0.984-7.207c0-1.729-0.659-3.94-1.978-6.636c-1.319-2.696-1.978-4.79-1.978-6.284
		C35.197,208.386,35.974,205.808,37.526,203.581z M43.854,216.589c4.16,0,12.056,0.57,23.687,1.709
		c3.281,0.263,7.31,0.628,12.085,1.096c3.691,0.438,7.69,1.475,11.997,3.11c3.457,1.314,5.801,2.425,7.031,3.33l-0.045,0.219
		c-6.387-0.643-16.99-1.592-31.815-2.848c-1.201-0.088-4.849-0.964-10.942-2.629c-5.332-1.461-9.243-2.6-11.733-3.417
		L43.854,216.589z M38.933,194.177c0.293-0.234,0.615-0.352,0.967-0.352c3.047,0.41,7.603,0.615,13.667,0.615h5.625
		c7.207,0,14.385,1.187,21.533,3.56c7.5,2.227,12.655,3.867,15.468,4.922c4.834,2.637,7.34,4.351,7.516,5.142v0.615
		c-0.264,1.084-0.396,1.655-0.396,1.714v0.527c0,0.674,1.35,2.886,4.043,6.636c0.41,0.762,0.615,1.245,0.615,1.45v0.483
		c0,0.176-0.072,0.264-0.22,0.264h-0.265c-5.01-5.566-8.452-8.965-10.327-10.195c-4.746-4.131-8.146-6.504-10.195-7.119
		c-1.143-0.732-3.222-1.348-6.239-1.846c-2.929-0.41-5.713-0.615-8.35-0.615c-8.115,0.088-13.081,0.132-14.897,0.132
		c-4.658,0-7.719-0.454-9.185-1.362C42.785,196.55,39.665,195.026,38.933,194.177z M97.423,142.365v2.505
		c0,5.449,0.688,9.712,2.065,12.788c1.085,2.402,2.96,4.98,5.625,7.734c2.345,2.197,4.688,4.409,7.031,6.636
		c5.713,5.449,10.138,10.459,13.271,15.029c2.521,3.662,4.569,8.35,6.151,14.063c0.615,2.227,0.925,3.604,0.925,4.131
		c0,0.293-0.222,0.542-0.66,0.747c-0.353-0.41-1.024-1.494-2.021-3.252c-1.787-3.105-4.645-7.676-8.569-13.711
		c-4.746-6.416-9.111-11.396-13.097-14.941l-9.756-8.525c-3.809-3.574-6.459-6.899-7.953-9.976
		c-1.759-3.633-2.639-7.251-2.639-10.854v-2.373L97.423,142.365L97.423,142.365z"/>
	<path id="path339" fill="#D5C56A" d="M97.423,117.053v2.549c0,2.139-0.364,4.321-1.098,6.548c-0.88,2.783-2.066,4.541-3.562,5.273
		c3.105,3.252,4.658,7.178,4.658,11.777v1.055H87.8v-4.658c0-2.637-0.352-4.409-1.055-5.317c-0.907-1.145-2.753-2.534-5.537-4.175
		c-2.578-1.523-4.467-2.959-5.669-4.307l0.352-0.483c1.143,0.469,2.872,1.143,5.186,2.021c1.67,0.615,3.399,0.923,5.186,0.923
		c1.025,0,1.537-1.23,1.537-3.691v-7.515H97.423z M105.113,127.248c0.383,0,1.193,0.848,2.439,2.544
		c1.245,1.696,1.866,2.791,1.866,3.286c-1.846,1.832-3.81,3.155-5.89,3.97c-1.729-1.957-3.399-3.964-5.01-6.021
		c0.412-0.059,1.494-0.703,3.252-1.934C103.531,127.862,104.646,127.248,105.113,127.248z"/>
	<path id="path341" fill="#D5C56A" d="M105.648,93.718c1.146,0,2.854,0.96,5.131,2.878c2.275,1.92,3.412,3.436,3.412,4.549
		c-0.842,1.377-1.644,2.988-2.396,4.834c0.029,0.176,0.988,1.033,2.879,2.57c1.891,1.539,2.834,2.762,2.834,3.67
		c0,0.762-0.453,2.095-1.361,3.999c-0.967,1.992-1.744,2.988-2.33,2.988c-1.934-1.494-3.412-2.666-4.438-3.516
		c-2.549-2.109-3.822-3.354-3.822-3.735c0.088-0.205,0.646-1.216,1.67-3.032c0.818-1.494,1.229-2.432,1.229-2.813
		c0-0.41-1.104-1.545-3.316-3.405c-2.213-1.86-3.318-3.04-3.318-3.538C103.346,95.534,104.623,93.718,105.648,93.718z M97.423,91.96
		v2.549c0,2.139-0.364,4.321-1.098,6.548c-0.88,2.779-2.066,4.534-3.562,5.265c3.105,3.243,4.658,7.158,4.658,11.745v1.052H87.8
		v-4.646c0-2.63-0.352-4.396-1.055-5.303c-0.907-1.139-2.753-2.526-5.537-4.163c-2.578-1.521-4.467-2.954-5.669-4.302l0.352-0.483
		c1.143,0.469,2.872,1.143,5.186,2.021c1.67,0.615,3.399,0.923,5.186,0.923c1.025,0,1.537-1.23,1.537-3.691V91.96H97.423z"/>
	<path id="path343" fill="#D5C56A" d="M41.965,71.569c1.67,0.557,4.702,1.084,9.097,1.582c3.018,0.264,7.559,0.659,13.623,1.187
		c9.815,0.908,18.003,3.369,24.564,7.383c5.448,3.34,8.174,6.636,8.174,9.888v2.944H87.8v-2.944c0-5.479-2.681-9.155-8.042-11.03
		c-3.164-1.113-8.159-1.67-14.985-1.67c-4.219,0-8.994-0.82-14.326-2.461c-4.072-1.23-7.046-2.681-8.921-4.351L41.965,71.569
		L41.965,71.569z M65.563,55.793c0.703,0,2.358,0.234,4.966,0.703c12.744,2.285,21.432,5.493,26.061,9.624
		c1.699,1.523,3.193,4.072,4.48,7.646c0.09,0.234,0.953,3.091,2.594,8.569c0.498,1.729,0.748,2.944,0.748,3.647
		c0,0.82-0.266,1.23-0.791,1.23c-0.471,0-1.172-0.659-2.109-1.978c-1.879-2.791-3.77-5.574-5.67-8.35
		c-2.137-3.105-4.291-5.684-6.459-7.734c-2.637-2.52-5.697-4.526-9.186-6.021c-1.904-0.85-5.478-2.065-10.723-3.647
		c-4.365-1.318-6.548-2.358-6.548-3.12C62.927,55.983,63.806,55.793,65.563,55.793L65.563,55.793z M37.526,24.372v4.79
		c0,1.172,0.769,3.354,2.307,6.548s2.307,5.771,2.307,7.734c0,1.699-0.382,3.472-1.147,5.317c-0.824,2.051-1.765,3.208-2.825,3.472
		c0.656-2.578,0.984-4.98,0.984-7.207c0-1.729-0.659-3.94-1.978-6.636c-1.319-2.696-1.978-4.79-1.978-6.284
		C35.197,29.177,35.974,26.599,37.526,24.372z M43.854,37.38c4.16,0,12.056,0.57,23.687,1.709c3.281,0.263,7.31,0.628,12.085,1.096
		c3.691,0.438,7.69,1.475,11.997,3.11c3.457,1.314,5.801,2.425,7.031,3.33l-0.045,0.219c-6.387-0.643-16.99-1.592-31.815-2.848
		c-1.201-0.088-4.849-0.964-10.942-2.629c-5.332-1.461-9.243-2.6-11.733-3.417L43.854,37.38z"/>
</g>
<path id="path1162" onload="setTimeout(()=&gt;this.style.strokeDashoffset = &quot;0&quot;, 200)" sodipodi:nodetypes="cscscssssssccscssssccccsssssscssscccsscsccccccccccsssccccccccccccsscsccscsccccccsccccsscsssssccccsccccccccsscccscccccscccscccccscssccsscccscccccccccccccccccsccccccccccccccccccccccccccccc" inkscape:connector-curvature="0" fill="none" stroke="#000000" stroke-width="8.1827" stroke-linejoin="round" d="
	M36.99,22.013c0.536,2.359-0.908,3.857-0.454,7.035c0.454,3.178,2.27,8.624,2.27,8.624s0.908,4.992,0.908,7.035
	s-1.545,7.527-1.545,7.527s-3.447,2.004-4.128-1.173c-0.681-3.177-1.589-7.715-1.362-8.85c0.227-1.135,0-2.27,4.085-3.177
	c4.084-0.908,9.077-1.361,11.8-0.908c2.723,0.454,6.808,1.815,12.935,2.497c6.127,0.681,7.716-0.454,17.701,1.361
	s19.454,4.643,19.454,4.643s4.373-1.012,2.104,1.938c-2.269,2.95-24.054,3.858-28.139,4.766s-13.162,2.723-13.162,2.723
	s5.673,0.681,9.985,1.362s9.531,2.496,13.616,4.766c4.085,2.269,7.942,2.042,10.894,6.808c2.949,4.766,3.857,7.489,5.673,10.893
	c1.815,3.404,4.767,9.758,4.767,9.758L84.646,74.434l-30.409-4.312l-12.711,1.975c0,0,11.123,3.471,13.846,3.698
	s13.389,0.454,18.155,1.588c4.765,1.135,9.304,2.27,10.893,3.177c1.589,0.907,7.489,4.539,7.489,6.354s1.36,10.439,0.681,13.389
	c-0.68,2.95-5.22,4.993-6.127,4.766c-0.908-0.227-10.922-4.365-10.922-4.365s12.738,5.5,13.646,7.315
	c0.906,1.815,4.084,8.396,4.084,10.893s-3.631,8.396-4.313,9.531c-0.682,1.135-10.666-1.135-10.666-1.135l-2.752,2.489
	c0,0,5.249-0.446,7.064,0.007c1.815,0.453,4.993,1.588,6.125,3.404c1.136,1.815,2.951,5.673,3.404,8.169
	c0.454,2.497,0.908,9.531,2.496,12.254c1.59,2.723,8.624,15.162,9.531,16.07c0.908,0.908,8.396,6.624,9.078,7.758
	c0.68,1.135,10.211,12.481,10.893,14.07c0.682,1.588,4.992,6.808,5.219,8.85c0.229,2.042-2.041,9.531-2.041,9.531l13.162-6.808
	l-30.863-53.783l-5.674-17.928l8.396-19.063l-6.127-15.204l3.631-7.035c0,0,14.297,3.858,21.785,22.013
	c7.488,18.154,17.247,29.274,18.382,59.91c1.136,30.636,3.403,41.755-1.135,47.656c-4.538,5.9-26.778,7.942-29.048,5.9
	s-19.742-30.863-19.742-30.863L51.06,181.772l-18.382,4.539l10.439,9.531l31.317,2.95c0,0,14.296,3.177,15.658,3.858
	s8.852,5.446,10.213,6.808c1.36,1.361,9.983,9.985,9.983,9.985l-15.886,0.454l-56.877-16.316c0,0-2.125,4.97-1.444,6.332
	c0.681,1.362,3.631,11.574,3.631,12.935c0,1.362,1.545,5.022,0,6.808c-1.545,1.786-1.362,3.858-2.497,4.084
	c-1.135,0.227-6.808-3.631-6.808-5.673s0.908-7.489,2.95-8.851c2.042-1.361,16.339-2.042,16.339-2.042s15.432,3.404,17.02,3.631
	c1.588,0.227,11.8,1.135,15.205,1.362c3.404,0.227,12.584,3.249,16.731,3.667c4.146,0.418,13.904,6.729,13.904,6.729l-27.005-1.319
	l-19.063,1.362l-5.673,1.588l6.581,2.496l17.02,4.766c0,0,5.446,3.858,7.489,6.127s4.539,4.993,6.127,8.396
	c1.589,3.404,4.313,7.716,4.992,9.304c0.682,1.588,1.815,3.404,1.815,3.404l-10.213-8.85c0,0-16.565-11.347-23.374-13.162
	c-6.809-1.815-23.828-3.404-26.551-3.404c-2.723,0-12.706,5.128-7.942,6.581c4.763,1.454,15.658,5.673,18.381,5.9
	s14.07,1.588,18.608,2.27c4.539,0.681,11.347,2.269,13.389,4.084c2.043,1.815,3.857,4.312,4.313,6.127s0.681,4.992,0.681,6.581
	c0,1.588-1.813,6.808-1.813,6.808l-3.404,2.724L75.89,279.43l-3.954-2.12c0,0,13.616,7.943,14.524,8.624
	c0.907,0.681,4.538,2.269,4.992,3.858c0.454,1.588,2.042,5.219,2.042,5.219l-0.453,5.447l-0.908,4.766c0,0,0.682,2.723-0.906,3.178
	c-1.59,0.453-8.17-0.228-8.17-0.228l-7.166-3.649l14.655,10.686c0,0,0.907,4.766,1.588,8.85c0.682,4.086,3.404,12.481,4.085,13.39
	c0.681,0.907,16.112,15.886,16.112,15.886l12.48,15.658l7.02,16.215c0,0,4.781,30.986,8.412,11.925
	c3.632-19.063-13.389-67.853-18.607-71.028c-5.22-3.179-18.382-14.297-18.382-14.297s9.985-19.291,9.758-20.198
	c-0.227-0.908-7.034-15.885-7.034-15.885l12.707-6.127c0,0,19.971,37.444,21.56,45.159c1.59,7.717,12.481,90.32,12.255,92.59
	s-34.268-7.035-34.268-7.035l-12.936-25.871c0,0-58.775-14.297-59.91-14.297c-1.135,0-11.347,8.625-11.347,8.625l14.253,9.19
	c0,0,23.872-0.795,25.914-0.341c2.042,0.453,14.979,4.537,14.979,4.537s7.262,2.951,8.85,4.313c1.589,1.361,9.189,8.102,9.32,10.299
	s3.16,9.219,3.16,9.219S91.68,396,89.637,395.091c-2.043-0.906-31.544-7.262-38.125-8.169c-6.582-0.907-13.988-4.13-13.988-4.13
	l-2.125,3.449c0,0,3.177,7.941,3.631,9.758c0.454,1.814,0.454,8.396,0.454,9.305c0,0.907-2.042,10.893-2.042,10.893
	s-11.574-17.473-11.12-18.607c0.454-1.135,24.055-0.454,24.055-0.454s27.005,4.085,27.913,4.085c0.908,0,20.361,3.826,20.361,3.826
	l10.273,6.611l-52.194-0.68l6.581,3.857c0,0,17.928,5.219,19.29,5.673c1.361,0.454,10.667,6.81,10.667,6.81l7.942,11.572
	l3.856,8.623l-8.851-5.445L65.13,423.002l-27.686-1.361v8.396l15.658,4.766l23.147,2.496l12.479,5.446l4.086,6.809
	c0.429,4.896-0.354,9.552-2.951,13.844c0,0-7.941-0.454-9.076-1.136c-1.135-0.681-4.897-3.622-4.897-3.622l16.469,10.885
	c0.586,3.073,0.849,6.31,0.229,9.984l-2.27,8.396l-5.446,0.453l-8.981-4.625l15.791,10.753l1.36,11.347
	c-0.903,4.614,2.722,9.229,5.219,13.843l15.433,15.885c0,0,14.297,15.433,14.522,16.794l3.615,12.063l-8.381,2.915l-87.822-25.189
	l3.305,10.453l11.9,2.709l31.543,3.177l16.793,8.171l10.894,7.488l23.375-4.085c0,0,6.807-11.801,6.58-13.843
	c-0.228-2.043-16.34-32.905-17.021-34.04c-0.683-1.135-2.271-54.918-2.271-54.918l-6.809-14.978l-8.271-0.142l5.774,15.799
	l2.043,6.81l-10.438,17.474l1.135,6.581"/>
<path id="path1162_1_" onload="setTimeout(()=&gt;this.style.strokeDashoffset = &quot;0&quot;, 200)" sodipodi:nodetypes="cscscssssssccscssssccccsssssscssscccsscsccccccccccsssccccccccccccsscsccscsccccccsccccsscsssssccccsccccccccsscccscccccscccscccccscssccsscccscccccccccccccccccsccccccccccccccccccccccccccccc" inkscape:connector-curvature="0" fill="none" stroke="#000000" stroke-width="8.1827" stroke-linejoin="round" d="
	M36.534,22.013c0.536,2.359-0.908,3.857-0.454,7.035c0.454,3.178,2.27,8.624,2.27,8.624s0.908,4.992,0.908,7.035
	s-1.545,7.527-1.545,7.527s-3.447,2.004-4.128-1.173c-0.681-3.177-1.589-7.715-1.362-8.85c0.227-1.135,0-2.27,4.085-3.177
	c4.084-0.908,9.077-1.361,11.8-0.908c2.723,0.454,6.808,1.815,12.935,2.497c6.127,0.681,7.716-0.454,17.701,1.361
	s19.454,4.643,19.454,4.643s4.373-1.012,2.104,1.938c-2.269,2.95-24.054,3.858-28.139,4.766s-13.162,2.723-13.162,2.723
	s5.673,0.681,9.985,1.362s9.531,2.496,13.616,4.766c4.085,2.269,7.942,2.042,10.894,6.808c2.949,4.766,3.857,7.489,5.673,10.893
	c1.815,3.404,4.767,9.758,4.767,9.758L84.19,74.434l-30.409-4.312L41.07,72.097c0,0,11.123,3.471,13.846,3.698
	s13.389,0.454,18.155,1.588c4.765,1.135,9.304,2.27,10.893,3.177c1.589,0.907,7.489,4.539,7.489,6.354s1.36,10.439,0.681,13.389
	c-0.68,2.95-5.22,4.993-6.127,4.766c-0.908-0.227-10.922-4.365-10.922-4.365s12.738,5.5,13.646,7.315
	c0.906,1.815,4.084,8.396,4.084,10.893s-3.631,8.396-4.313,9.531c-0.682,1.135-10.666-1.135-10.666-1.135l-2.752,2.489
	c0,0,5.249-0.446,7.064,0.007c1.815,0.453,4.993,1.588,6.125,3.404c1.136,1.815,2.951,5.673,3.404,8.169
	c0.454,2.497,0.908,9.531,2.496,12.254c1.59,2.723,8.624,15.162,9.531,16.07c0.908,0.908,8.396,6.624,9.078,7.758
	c0.68,1.135,10.211,12.481,10.893,14.07c0.682,1.588,4.992,6.808,5.219,8.85c0.229,2.042-2.041,9.531-2.041,9.531l13.162-6.808
	l-30.863-53.783l-5.674-17.928l8.396-19.063l-6.127-15.204l3.631-7.035c0,0,14.297,3.858,21.785,22.013
	c7.488,18.154,17.247,29.274,18.382,59.91c1.136,30.636,3.403,41.755-1.135,47.656c-4.538,5.9-26.778,7.942-29.048,5.9
	s-19.742-30.863-19.742-30.863l-49.018-12.933l-18.382,4.539l10.439,9.531l31.317,2.95c0,0,14.296,3.177,15.658,3.858
	s8.852,5.446,10.213,6.808c1.36,1.361,9.983,9.985,9.983,9.985l-15.886,0.454l-56.877-16.316c0,0-2.125,4.97-1.444,6.332
	c0.681,1.362,3.631,11.574,3.631,12.935c0,1.362,1.545,5.022,0,6.808c-1.545,1.786-1.362,3.858-2.497,4.084
	c-1.135,0.227-6.808-3.631-6.808-5.673s0.908-7.489,2.95-8.851c2.042-1.361,16.339-2.042,16.339-2.042s15.432,3.404,17.02,3.631
	c1.588,0.227,11.8,1.135,15.205,1.362c3.404,0.227,12.584,3.249,16.731,3.667c4.146,0.418,13.904,6.729,13.904,6.729l-27.005-1.319
	l-19.063,1.362l-5.673,1.588l6.581,2.496l17.02,4.766c0,0,5.446,3.858,7.489,6.127s4.539,4.993,6.127,8.396
	c1.589,3.404,4.313,7.716,4.992,9.304c0.682,1.588,1.815,3.404,1.815,3.404l-10.213-8.85c0,0-16.565-11.347-23.374-13.162
	c-6.809-1.815-23.828-3.404-26.551-3.404c-2.723,0-12.706,5.128-7.942,6.581c4.763,1.454,15.658,5.673,18.381,5.9
	s14.07,1.588,18.608,2.27c4.539,0.681,11.347,2.269,13.389,4.084c2.043,1.815,3.857,4.312,4.313,6.127s0.681,4.992,0.681,6.581
	c0,1.588-1.813,6.808-1.813,6.808l-3.404,2.724l-11.024-4.916l-3.954-2.12c0,0,13.616,7.943,14.524,8.624
	c0.907,0.681,4.538,2.269,4.992,3.858c0.454,1.588,2.042,5.219,2.042,5.219l-0.453,5.447l-0.908,4.766c0,0,0.682,2.723-0.906,3.178
	c-1.59,0.453-8.17-0.228-8.17-0.228l-7.166-3.649l14.655,10.686c0,0,0.907,4.766,1.588,8.85c0.682,4.086,3.404,12.481,4.085,13.39
	c0.681,0.907,16.112,15.886,16.112,15.886l12.48,15.658l7.02,16.215c0,0,4.781,30.986,8.412,11.925
	c3.632-19.063-13.389-67.853-18.607-71.028c-5.22-3.179-18.382-14.297-18.382-14.297s9.985-19.291,9.758-20.198
	c-0.227-0.908-7.034-15.885-7.034-15.885l12.707-6.127c0,0,19.971,37.444,21.56,45.159c1.59,7.717,12.481,90.32,12.255,92.59
	s-34.268-7.035-34.268-7.035l-12.936-25.871c0,0-58.775-14.297-59.91-14.297c-1.135,0-11.347,8.625-11.347,8.625l14.253,9.19
	c0,0,23.872-0.795,25.914-0.341c2.042,0.453,14.979,4.537,14.979,4.537s7.262,2.951,8.85,4.313c1.589,1.361,9.189,8.102,9.32,10.299
	s3.16,9.219,3.16,9.219S91.224,396,89.181,395.091c-2.043-0.906-31.544-7.262-38.125-8.169c-6.582-0.907-13.988-4.13-13.988-4.13
	l-2.125,3.449c0,0,3.177,7.941,3.631,9.758c0.454,1.814,0.454,8.396,0.454,9.305c0,0.907-2.042,10.893-2.042,10.893
	s-11.574-17.473-11.12-18.607c0.454-1.135,24.055-0.454,24.055-0.454s27.005,4.085,27.913,4.085c0.908,0,20.361,3.826,20.361,3.826
	l10.273,6.611l-52.194-0.68l6.581,3.857c0,0,17.928,5.219,19.29,5.673c1.361,0.454,10.667,6.81,10.667,6.81l7.942,11.572
	l3.856,8.623l-8.851-5.445l-31.086-19.065l-27.686-1.361v8.396l15.658,4.766l23.147,2.496l12.479,5.446l4.086,6.809
	c0.429,4.896-0.354,9.552-2.951,13.844c0,0-7.941-0.454-9.076-1.136c-1.135-0.681-4.897-3.622-4.897-3.622l16.469,10.885
	c0.586,3.073,0.849,6.31,0.229,9.984l-2.27,8.396l-5.446,0.453l-8.981-4.625l15.791,10.753l1.36,11.347
	c-0.903,4.614,2.722,9.229,5.219,13.843l15.433,15.885c0,0,14.297,15.433,14.522,16.794l3.615,12.063l-8.381,2.915l-87.822-25.189
	l3.305,10.453l11.9,2.709l31.543,3.177l16.793,8.171l10.894,7.488l23.375-4.085c0,0,6.807-11.801,6.58-13.843
	c-0.228-2.043-16.34-32.905-17.021-34.04c-0.683-1.135-2.271-54.918-2.271-54.918l-6.809-14.978l-8.271-0.142l5.774,15.799
	l2.043,6.81l-10.438,17.474l1.135,6.581"/>
<path id="path1162_3_" onload="setTimeout(()=&gt;this.style.strokeDashoffset = &quot;0&quot;, 200)" sodipodi:nodetypes="cscscssssssccscssssccccsssssscssscccsscsccccccccccsssccccccccccccsscsccscsccccccsccccsscsssssccccsccccccccsscccscccccscccscccccscssccsscccscccccccccccccccccsccccccccccccccccccccccccccccc" inkscape:connector-curvature="0" fill="none" stroke="#000000" stroke-width="8.1827" stroke-linejoin="round" d="
	M38.521,22.018c0.536,2.359-0.908,3.857-0.454,7.035c0.454,3.178,2.27,8.624,2.27,8.624s0.908,4.992,0.908,7.035
	S39.7,52.239,39.7,52.239s-3.447,2.004-4.128-1.173c-0.681-3.177-1.589-7.715-1.362-8.85c0.227-1.135,0-2.27,4.085-3.177
	c4.084-0.908,9.077-1.361,11.8-0.908c2.723,0.454,6.808,1.815,12.935,2.497c6.127,0.681,7.716-0.454,17.701,1.361
	s19.454,4.643,19.454,4.643s4.373-1.012,2.104,1.938c-2.269,2.95-24.054,3.858-28.139,4.766s-13.162,2.723-13.162,2.723
	s5.673,0.681,9.985,1.362s9.531,2.496,13.616,4.766c4.085,2.269,7.942,2.042,10.894,6.808c2.949,4.766,3.857,7.489,5.673,10.893
	c1.815,3.404,4.767,9.758,4.767,9.758L86.177,74.439l-30.409-4.312l-12.711,1.975c0,0,11.123,3.471,13.846,3.698
	s13.389,0.454,18.155,1.588c4.765,1.135,9.304,2.27,10.893,3.177c1.589,0.907,7.489,4.539,7.489,6.354s1.36,10.439,0.681,13.389
	c-0.68,2.95-5.22,4.993-6.127,4.766c-0.908-0.227-10.922-4.365-10.922-4.365s12.738,5.5,13.646,7.315
	c0.906,1.815,4.084,8.396,4.084,10.893s-3.631,8.396-4.313,9.531c-0.682,1.135-10.666-1.135-10.666-1.135l-2.752,2.489
	c0,0,5.249-0.446,7.064,0.007c1.815,0.453,4.993,1.588,6.125,3.404c1.136,1.815,2.951,5.673,3.404,8.169
	c0.454,2.497,0.908,9.531,2.496,12.254c1.59,2.723,8.624,15.162,9.531,16.07c0.908,0.908,8.396,6.624,9.078,7.758
	c0.68,1.135,10.211,12.481,10.893,14.07c0.682,1.588,4.992,6.808,5.219,8.85c0.229,2.042-2.041,9.531-2.041,9.531l13.162-6.808
	l-30.863-53.783l-5.674-17.928l8.396-19.063l-6.127-15.204l3.631-7.035c0,0,14.297,3.858,21.785,22.013
	c7.488,18.154,17.247,29.274,18.382,59.91c1.136,30.636,3.403,41.755-1.135,47.656c-4.538,5.9-26.778,7.942-29.048,5.9
	s-19.742-30.863-19.742-30.863l-49.018-12.933l-18.382,4.539l10.439,9.531l31.317,2.95c0,0,14.296,3.177,15.658,3.858
	s8.852,5.446,10.213,6.808c1.36,1.361,9.983,9.985,9.983,9.985l-15.886,0.454l-56.877-16.316c0,0-2.125,4.97-1.444,6.332
	c0.681,1.362,3.631,11.574,3.631,12.935c0,1.362,1.545,5.022,0,6.808c-1.545,1.786-1.362,3.858-2.497,4.084
	c-1.135,0.227-6.808-3.631-6.808-5.673s0.908-7.489,2.95-8.851c2.042-1.361,16.339-2.042,16.339-2.042s15.432,3.404,17.02,3.631
	c1.588,0.227,11.8,1.135,15.205,1.362c3.404,0.227,12.584,3.249,16.731,3.667c4.146,0.418,13.904,6.729,13.904,6.729l-27.005-1.319
	l-19.063,1.362l-5.673,1.588l6.581,2.496l17.02,4.766c0,0,5.446,3.858,7.489,6.127s4.539,4.993,6.127,8.396
	c1.589,3.404,4.313,7.716,4.992,9.304c0.682,1.588,1.815,3.404,1.815,3.404l-10.213-8.85c0,0-16.565-11.347-23.374-13.162
	c-6.809-1.815-23.828-3.404-26.551-3.404c-2.723,0-12.706,5.128-7.942,6.581c4.763,1.454,15.658,5.673,18.381,5.9
	s14.07,1.588,18.608,2.27c4.539,0.681,11.347,2.269,13.389,4.084c2.043,1.815,3.857,4.312,4.313,6.127s0.681,4.992,0.681,6.581
	c0,1.588-1.813,6.808-1.813,6.808l-3.404,2.724l-11.024-4.916l-3.954-2.12c0,0,13.616,7.943,14.524,8.624
	c0.907,0.681,4.538,2.269,4.992,3.858c0.454,1.588,2.042,5.219,2.042,5.219l-0.453,5.447l-0.908,4.766c0,0,0.682,2.723-0.906,3.178
	c-1.59,0.453-8.17-0.228-8.17-0.228l-7.166-3.649l14.655,10.686c0,0,0.907,4.766,1.588,8.85c0.682,4.086,3.404,12.481,4.085,13.39
	c0.681,0.907,16.112,15.886,16.112,15.886l12.48,15.658l7.02,16.215c0,0,4.781,30.986,8.412,11.925
	c3.632-19.063-13.389-67.853-18.607-71.028c-5.22-3.179-18.382-14.297-18.382-14.297s9.985-19.291,9.758-20.198
	c-0.227-0.908-7.034-15.885-7.034-15.885l12.707-6.127c0,0,19.971,37.444,21.56,45.159c1.59,7.717,12.481,90.32,12.255,92.59
	s-34.268-7.035-34.268-7.035l-12.936-25.871c0,0-58.775-14.297-59.91-14.297c-1.135,0-11.347,8.625-11.347,8.625l14.253,9.19
	c0,0,23.872-0.795,25.914-0.341c2.042,0.453,14.979,4.537,14.979,4.537s7.262,2.951,8.85,4.313c1.589,1.361,9.189,8.102,9.32,10.299
	s3.16,9.219,3.16,9.219s-18.834-9.985-20.877-10.895c-2.043-0.906-31.544-7.262-38.125-8.169c-6.582-0.907-13.988-4.13-13.988-4.13
	l-2.125,3.449c0,0,3.177,7.941,3.631,9.758c0.454,1.814,0.454,8.396,0.454,9.305c0,0.907-2.042,10.893-2.042,10.893
	s-11.574-17.473-11.12-18.607c0.454-1.135,24.055-0.454,24.055-0.454s27.005,4.085,27.913,4.085c0.908,0,20.361,3.826,20.361,3.826
	l10.273,6.611l-52.194-0.68l6.581,3.857c0,0,17.928,5.219,19.29,5.673c1.361,0.454,10.667,6.81,10.667,6.81l7.942,11.572
	l3.856,8.623l-8.851-5.445l-31.086-19.065l-27.686-1.361v8.396l15.658,4.766l23.147,2.496l12.479,5.446l4.086,6.809
	c0.429,4.896-0.354,9.552-2.951,13.844c0,0-7.941-0.454-9.076-1.136c-1.135-0.681-4.897-3.622-4.897-3.622l16.469,10.885
	c0.586,3.073,0.849,6.31,0.229,9.984l-2.27,8.396l-5.446,0.453l-8.981-4.625l15.791,10.753l1.36,11.347
	c-0.903,4.614,2.722,9.229,5.219,13.843l15.433,15.885c0,0,14.297,15.433,14.522,16.794l3.615,12.063l-8.381,2.915l-87.822-25.189
	l3.305,10.453l11.9,2.709l31.543,3.177l16.793,8.171l10.894,7.488l23.375-4.085c0,0,6.807-11.801,6.58-13.843
	c-0.228-2.043-16.34-32.905-17.021-34.04c-0.683-1.135-2.271-54.918-2.271-54.918l-6.809-14.978l-8.271-0.142l5.774,15.799
	l2.043,6.81l-10.438,17.474l1.135,6.581"/>
<path id="path1162_2_" onload="setTimeout(()=&gt;this.style.strokeDashoffset = &quot;0&quot;, 200)" sodipodi:nodetypes="cscscssssssccscssssccccsssssscssscccsscsccccccccccsssccccccccccccsscsccscsccccccsccccsscsssssccccsccccccccsscccscccccscccscccccscssccsscccscccccccccccccccccsccccccccccccccccccccccccccccc" inkscape:connector-curvature="0" fill="none" stroke="#000000" stroke-width="8.1827" stroke-linejoin="round" d="
	M35.617,22.013c0.536,2.359-0.908,3.857-0.454,7.035c0.454,3.178,2.27,8.624,2.27,8.624s0.908,4.992,0.908,7.035
	s-1.545,7.527-1.545,7.527s-3.447,2.004-4.128-1.173c-0.681-3.177-1.589-7.715-1.362-8.85c0.227-1.135,0-2.27,4.085-3.177
	c4.084-0.908,9.077-1.361,11.8-0.908c2.723,0.454,6.808,1.815,12.935,2.497c6.127,0.681,7.716-0.454,17.701,1.361
	s19.454,4.643,19.454,4.643s4.373-1.012,2.104,1.938c-2.269,2.95-24.054,3.858-28.139,4.766s-13.162,2.723-13.162,2.723
	s5.673,0.681,9.985,1.362s9.531,2.496,13.616,4.766c4.085,2.269,7.942,2.042,10.894,6.808c2.949,4.766,3.857,7.489,5.673,10.893
	c1.815,3.404,4.767,9.758,4.767,9.758L83.273,74.434l-30.409-4.312l-12.711,1.975c0,0,11.123,3.471,13.846,3.698
	s13.389,0.454,18.155,1.588c4.765,1.135,9.304,2.27,10.893,3.177c1.589,0.907,7.489,4.539,7.489,6.354s1.36,10.439,0.681,13.389
	c-0.68,2.95-5.22,4.993-6.127,4.766c-0.908-0.227-10.922-4.365-10.922-4.365s12.738,5.5,13.646,7.315
	c0.906,1.815,4.084,8.396,4.084,10.893s-3.631,8.396-4.313,9.531c-0.682,1.135-10.666-1.135-10.666-1.135l-2.752,2.489
	c0,0,5.249-0.446,7.064,0.007c1.815,0.453,4.993,1.588,6.125,3.404c1.136,1.815,2.951,5.673,3.404,8.169
	c0.454,2.497,0.908,9.531,2.496,12.254c1.59,2.723,8.624,15.162,9.531,16.07c0.908,0.908,8.396,6.624,9.078,7.758
	c0.68,1.135,10.211,12.481,10.893,14.07c0.682,1.588,4.992,6.808,5.219,8.85c0.229,2.042-2.041,9.531-2.041,9.531l13.162-6.808
	l-30.863-53.783l-5.674-17.928l8.396-19.063l-6.127-15.204l3.631-7.035c0,0,14.297,3.858,21.785,22.013
	c7.488,18.154,17.247,29.274,18.382,59.91c1.136,30.636,3.403,41.755-1.135,47.656c-4.538,5.9-26.778,7.942-29.048,5.9
	s-19.742-30.863-19.742-30.863l-49.018-12.933l-18.382,4.539l10.439,9.531l31.317,2.95c0,0,14.296,3.177,15.658,3.858
	s8.852,5.446,10.213,6.808c1.36,1.361,9.983,9.985,9.983,9.985l-15.886,0.454l-56.877-16.316c0,0-2.125,4.97-1.444,6.332
	c0.681,1.362,3.631,11.574,3.631,12.935c0,1.362,1.545,5.022,0,6.808c-1.545,1.786-1.362,3.858-2.497,4.084
	c-1.135,0.227-6.808-3.631-6.808-5.673s0.908-7.489,2.95-8.851c2.042-1.361,16.339-2.042,16.339-2.042s15.432,3.404,17.02,3.631
	c1.588,0.227,11.8,1.135,15.205,1.362c3.404,0.227,12.584,3.249,16.731,3.667c4.146,0.418,13.904,6.729,13.904,6.729l-27.005-1.319
	l-19.063,1.362l-5.673,1.588l6.581,2.496l17.02,4.766c0,0,5.446,3.858,7.489,6.127s4.539,4.993,6.127,8.396
	c1.589,3.404,4.313,7.716,4.992,9.304c0.682,1.588,1.815,3.404,1.815,3.404l-10.213-8.85c0,0-16.565-11.347-23.374-13.162
	c-6.809-1.815-23.828-3.404-26.551-3.404c-2.723,0-12.706,5.128-7.942,6.581c4.763,1.454,15.658,5.673,18.381,5.9
	s14.07,1.588,18.608,2.27c4.539,0.681,11.347,2.269,13.389,4.084c2.043,1.815,3.857,4.312,4.313,6.127s0.681,4.992,0.681,6.581
	c0,1.588-1.813,6.808-1.813,6.808l-3.404,2.724l-11.024-4.916l-3.954-2.12c0,0,13.616,7.943,14.524,8.624
	c0.907,0.681,4.538,2.269,4.992,3.858c0.454,1.588,2.042,5.219,2.042,5.219l-0.453,5.447l-0.908,4.766c0,0,0.682,2.723-0.906,3.178
	c-1.59,0.453-8.17-0.228-8.17-0.228l-7.166-3.649l14.655,10.686c0,0,0.907,4.766,1.588,8.85c0.682,4.086,3.404,12.481,4.085,13.39
	c0.681,0.907,16.112,15.886,16.112,15.886l12.48,15.658l7.02,16.215c0,0,4.781,30.986,8.412,11.925
	c3.632-19.063-13.389-67.853-18.607-71.028c-5.22-3.179-18.382-14.297-18.382-14.297s9.985-19.291,9.758-20.198
	c-0.227-0.908-7.034-15.885-7.034-15.885l12.707-6.127c0,0,19.971,37.444,21.56,45.159c1.59,7.717,12.481,90.32,12.255,92.59
	s-34.268-7.035-34.268-7.035l-12.936-25.871c0,0-58.775-14.297-59.91-14.297c-1.135,0-11.347,8.625-11.347,8.625l14.253,9.19
	c0,0,23.872-0.795,25.914-0.341c2.042,0.453,14.979,4.537,14.979,4.537s7.262,2.951,8.85,4.313c1.589,1.361,9.189,8.102,9.32,10.299
	s3.16,9.219,3.16,9.219S90.307,396,88.264,395.091c-2.043-0.906-31.544-7.262-38.125-8.169c-6.582-0.907-13.988-4.13-13.988-4.13
	l-2.125,3.449c0,0,3.177,7.941,3.631,9.758c0.454,1.814,0.454,8.396,0.454,9.305c0,0.907-2.042,10.893-2.042,10.893
	s-11.574-17.473-11.12-18.607c0.454-1.135,24.055-0.454,24.055-0.454s27.005,4.085,27.913,4.085c0.908,0,20.361,3.826,20.361,3.826
	l10.273,6.611l-52.194-0.68l6.581,3.857c0,0,17.928,5.219,19.29,5.673c1.361,0.454,10.667,6.81,10.667,6.81l7.942,11.572
	l3.856,8.623l-8.851-5.445l-31.086-19.065l-27.686-1.361v8.396l15.658,4.766l23.147,2.496l12.479,5.446l4.086,6.809
	c0.429,4.896-0.354,9.552-2.951,13.844c0,0-7.941-0.454-9.076-1.136c-1.135-0.681-4.897-3.622-4.897-3.622l16.469,10.885
	c0.586,3.073,0.849,6.31,0.229,9.984l-2.27,8.396l-5.446,0.453l-8.981-4.625l15.791,10.753l1.36,11.347
	c-0.903,4.614,2.722,9.229,5.219,13.843l15.433,15.885c0,0,14.297,15.433,14.522,16.794l3.615,12.063l-8.381,2.915l-87.822-25.189
	l3.305,10.453l11.9,2.709l31.543,3.177l16.793,8.171l10.894,7.488l23.375-4.085c0,0,6.807-11.801,6.58-13.843
	c-0.228-2.043-16.34-32.905-17.021-34.04c-0.683-1.135-2.271-54.918-2.271-54.918l-6.809-14.978l-8.271-0.142l5.774,15.799
	l2.043,6.81l-10.438,17.474l1.135,6.581"/>
<path id="path1162_4_" onload="setTimeout(()=&gt;this.style.strokeDashoffset = &quot;0&quot;, 200)" sodipodi:nodetypes="cscscssssssccscssssccccsssssscssscccsscsccccccccccsssccccccccccccsscsccscsccccccsccccsscsssssccccsccccccccsscccscccccscccscccccscssccsscccscccccccccccccccccsccccccccccccccccccccccccccccc" inkscape:connector-curvature="0" fill="none" stroke="#000000" stroke-width="8.1827" stroke-linejoin="round" d="
	M34.476,22.013c0.536,2.359-0.908,3.857-0.454,7.035c0.454,3.178,2.27,8.624,2.27,8.624s0.908,4.992,0.908,7.035
	s-1.545,7.527-1.545,7.527s-3.447,2.004-4.128-1.173c-0.681-3.177-1.589-7.715-1.362-8.85c0.227-1.135,0-2.27,4.085-3.177
	c4.084-0.908,9.077-1.361,11.8-0.908c2.723,0.454,6.808,1.815,12.935,2.497c6.127,0.681,7.716-0.454,17.701,1.361
	s19.454,4.643,19.454,4.643s4.373-1.012,2.104,1.938c-2.269,2.95-24.054,3.858-28.139,4.766s-13.162,2.723-13.162,2.723
	s5.673,0.681,9.985,1.362s9.531,2.496,13.616,4.766c4.085,2.269,7.942,2.042,10.894,6.808c2.949,4.766,3.857,7.489,5.673,10.893
	c1.815,3.404,4.767,9.758,4.767,9.758L82.131,74.434l-30.409-4.312l-12.711,1.975c0,0,11.123,3.471,13.846,3.698
	s13.389,0.454,18.155,1.588c4.765,1.135,9.304,2.27,10.893,3.177c1.589,0.907,7.489,4.539,7.489,6.354s1.36,10.439,0.681,13.389
	c-0.68,2.95-5.22,4.993-6.127,4.766c-0.908-0.227-10.922-4.365-10.922-4.365s12.738,5.5,13.646,7.315
	c0.906,1.815,4.084,8.396,4.084,10.893s-3.631,8.396-4.313,9.531c-0.682,1.135-10.666-1.135-10.666-1.135l-2.752,2.489
	c0,0,5.249-0.446,7.064,0.007c1.815,0.453,4.993,1.588,6.125,3.404c1.136,1.815,2.951,5.673,3.404,8.169
	c0.454,2.497,0.908,9.531,2.496,12.254c1.59,2.723,8.624,15.162,9.531,16.07c0.908,0.908,8.396,6.624,9.078,7.758
	c0.68,1.135,10.211,12.481,10.893,14.07c0.682,1.588,4.992,6.808,5.219,8.85c0.229,2.042-2.041,9.531-2.041,9.531l13.162-6.808
	l-30.863-53.783l-5.674-17.928l8.396-19.063l-6.127-15.204l3.631-7.035c0,0,14.297,3.858,21.785,22.013
	c7.488,18.154,17.247,29.274,18.382,59.91c1.136,30.636,3.403,41.755-1.135,47.656c-4.538,5.9-26.778,7.942-29.048,5.9
	s-19.742-30.863-19.742-30.863l-49.018-12.933l-18.382,4.539l10.439,9.531l31.317,2.95c0,0,14.296,3.177,15.658,3.858
	s8.852,5.446,10.213,6.808c1.36,1.361,9.983,9.985,9.983,9.985l-15.886,0.454L35.01,203.581c0,0-2.125,4.97-1.444,6.332
	c0.681,1.362,3.631,11.574,3.631,12.935c0,1.362,1.545,5.022,0,6.808c-1.545,1.786-1.362,3.858-2.497,4.084
	c-1.135,0.227-6.808-3.631-6.808-5.673s0.908-7.489,2.95-8.851c2.042-1.361,16.339-2.042,16.339-2.042s15.432,3.404,17.02,3.631
	c1.588,0.227,11.8,1.135,15.205,1.362c3.404,0.227,12.584,3.249,16.731,3.667c4.146,0.418,13.904,6.729,13.904,6.729l-27.005-1.319
	l-19.063,1.362l-5.673,1.588l6.581,2.496l17.02,4.766c0,0,5.446,3.858,7.489,6.127s4.539,4.993,6.127,8.396
	c1.589,3.404,4.313,7.716,4.992,9.304c0.682,1.588,1.815,3.404,1.815,3.404l-10.213-8.85c0,0-16.565-11.347-23.374-13.162
	c-6.809-1.815-23.828-3.404-26.551-3.404c-2.723,0-12.706,5.128-7.942,6.581c4.763,1.454,15.658,5.673,18.381,5.9
	s14.07,1.588,18.608,2.27c4.539,0.681,11.347,2.269,13.389,4.084c2.043,1.815,3.857,4.312,4.313,6.127s0.681,4.992,0.681,6.581
	c0,1.588-1.813,6.808-1.813,6.808l-3.404,2.724l-11.024-4.916l-3.954-2.12c0,0,13.616,7.943,14.524,8.624
	c0.907,0.681,4.538,2.269,4.992,3.858c0.454,1.588,2.042,5.219,2.042,5.219l-0.453,5.448l-0.908,4.766c0,0,0.682,2.723-0.906,3.178
	c-1.59,0.453-8.17-0.229-8.17-0.229l-7.166-3.648L88.03,315.21c0,0,0.907,4.766,1.588,8.85c0.682,4.086,3.404,12.48,4.085,13.389
	s16.112,15.887,16.112,15.887l12.48,15.658l7.02,16.215c0,0,4.781,30.986,8.412,11.924c3.632-19.063-13.389-67.852-18.607-71.027
	c-5.22-3.18-18.382-14.297-18.382-14.297s9.985-19.291,9.758-20.198c-0.227-0.908-7.034-15.885-7.034-15.885l12.707-6.127
	c0,0,19.971,37.444,21.56,45.159c1.59,7.717,12.481,90.32,12.255,92.59s-34.268-7.035-34.268-7.035L102.78,374.44
	c0,0-58.775-14.297-59.91-14.297c-1.135,0-11.347,8.625-11.347,8.625l14.253,9.189c0,0,23.872-0.795,25.914-0.34
	c2.042,0.453,14.979,4.537,14.979,4.537s7.262,2.951,8.85,4.313c1.589,1.361,9.189,8.102,9.32,10.299s3.16,9.219,3.16,9.219
	s-18.834-9.986-20.877-10.895c-2.043-0.906-31.544-7.262-38.125-8.17c-6.582-0.906-13.988-4.129-13.988-4.129l-2.125,3.449
	c0,0,3.177,7.941,3.631,9.758c0.454,1.814,0.454,8.396,0.454,9.305c0,0.906-2.042,10.893-2.042,10.893s-11.574-17.473-11.12-18.607
	c0.454-1.135,24.055-0.455,24.055-0.455s27.005,4.086,27.913,4.086c0.908,0,20.361,3.826,20.361,3.826l10.273,6.611l-52.194-0.68
	l6.581,3.857c0,0,17.928,5.219,19.29,5.672c1.361,0.455,10.667,6.811,10.667,6.811l7.942,11.572l3.856,8.623l-8.851-5.445
	l-31.086-19.066l-27.686-1.361v8.396l15.658,4.766l23.147,2.496l12.479,5.447l4.086,6.809c0.429,4.896-0.354,9.551-2.951,13.844
	c0,0-7.941-0.455-9.076-1.137c-1.135-0.68-4.897-3.621-4.897-3.621l16.469,10.885c0.586,3.072,0.849,6.309,0.229,9.984l-2.27,8.396
	l-5.446,0.453l-8.981-4.625l15.791,10.752l1.36,11.348c-0.903,4.613,2.722,9.229,5.219,13.842l15.433,15.885
	c0,0,14.297,15.434,14.522,16.795l3.615,12.063l-8.381,2.914l-87.822-25.189l3.305,10.453l11.9,2.709l31.543,3.178l16.793,8.17
	l10.894,7.488l23.375-4.084c0,0,6.807-11.801,6.58-13.844c-0.228-2.043-16.34-32.904-17.021-34.039
	c-0.683-1.135-2.271-54.918-2.271-54.918l-6.809-14.979l-8.271-0.141l5.774,15.799l2.043,6.809l-10.438,17.475l1.135,6.58"/>
</svg>
